<mxfile host="app.diagrams.net" modified="2021-11-22T09:53:35.131Z" agent="5.0 (Windows NT 10.0; Win64; x64) AppleWebKit/537.36 (KHTML, like Gecko) Chrome/96.0.4664.45 Safari/537.36" etag="oQ0Z36PNdZEC9oWPR2mn" version="15.8.3" type="github">
  <diagram id="C5RBs43oDa-KdzZeNtuy" name="Page-1">
    <mxGraphModel dx="843" dy="428" grid="1" gridSize="10" guides="1" tooltips="1" connect="1" arrows="1" fold="1" page="1" pageScale="1" pageWidth="827" pageHeight="1169" math="0" shadow="0">
      <root>
        <mxCell id="WIyWlLk6GJQsqaUBKTNV-0" />
        <mxCell id="WIyWlLk6GJQsqaUBKTNV-1" parent="WIyWlLk6GJQsqaUBKTNV-0" />
        <mxCell id="1DGVkTzjhTIz0uIGiIYD-1" style="edgeStyle=orthogonalEdgeStyle;rounded=0;orthogonalLoop=1;jettySize=auto;html=1;" parent="WIyWlLk6GJQsqaUBKTNV-1" source="1DGVkTzjhTIz0uIGiIYD-0" target="1DGVkTzjhTIz0uIGiIYD-6" edge="1">
          <mxGeometry relative="1" as="geometry">
            <mxPoint x="450" y="550" as="targetPoint" />
          </mxGeometry>
        </mxCell>
        <mxCell id="1DGVkTzjhTIz0uIGiIYD-2" style="edgeStyle=orthogonalEdgeStyle;rounded=0;orthogonalLoop=1;jettySize=auto;html=1;" parent="WIyWlLk6GJQsqaUBKTNV-1" source="1DGVkTzjhTIz0uIGiIYD-0" target="1DGVkTzjhTIz0uIGiIYD-5" edge="1">
          <mxGeometry relative="1" as="geometry">
            <mxPoint x="600" y="690" as="targetPoint" />
          </mxGeometry>
        </mxCell>
        <mxCell id="1DGVkTzjhTIz0uIGiIYD-3" style="edgeStyle=orthogonalEdgeStyle;rounded=0;orthogonalLoop=1;jettySize=auto;html=1;" parent="WIyWlLk6GJQsqaUBKTNV-1" source="1DGVkTzjhTIz0uIGiIYD-0" target="1DGVkTzjhTIz0uIGiIYD-13" edge="1">
          <mxGeometry relative="1" as="geometry">
            <mxPoint x="450" y="840" as="targetPoint" />
          </mxGeometry>
        </mxCell>
        <mxCell id="1DGVkTzjhTIz0uIGiIYD-4" style="edgeStyle=orthogonalEdgeStyle;rounded=0;orthogonalLoop=1;jettySize=auto;html=1;" parent="WIyWlLk6GJQsqaUBKTNV-1" source="1DGVkTzjhTIz0uIGiIYD-0" target="1DGVkTzjhTIz0uIGiIYD-12" edge="1">
          <mxGeometry relative="1" as="geometry">
            <mxPoint x="290" y="690" as="targetPoint" />
          </mxGeometry>
        </mxCell>
        <mxCell id="1DGVkTzjhTIz0uIGiIYD-0" value="ELECTRONIC SHOP" style="ellipse;whiteSpace=wrap;html=1;aspect=fixed;fontStyle=1;labelBackgroundColor=default;labelBorderColor=default;" parent="WIyWlLk6GJQsqaUBKTNV-1" vertex="1">
          <mxGeometry x="370" y="610" width="160" height="160" as="geometry" />
        </mxCell>
        <mxCell id="1DGVkTzjhTIz0uIGiIYD-19" value="" style="edgeStyle=orthogonalEdgeStyle;rounded=0;orthogonalLoop=1;jettySize=auto;html=1;exitX=1;exitY=0.5;exitDx=0;exitDy=0;" parent="WIyWlLk6GJQsqaUBKTNV-1" source="1DGVkTzjhTIz0uIGiIYD-5" target="1DGVkTzjhTIz0uIGiIYD-18" edge="1">
          <mxGeometry relative="1" as="geometry">
            <Array as="points">
              <mxPoint x="740" y="760" />
              <mxPoint x="670" y="760" />
            </Array>
          </mxGeometry>
        </mxCell>
        <mxCell id="1DGVkTzjhTIz0uIGiIYD-5" value="ADD PRODUCTS" style="rhombus;whiteSpace=wrap;html=1;labelBackgroundColor=default;labelBorderColor=default;" parent="WIyWlLk6GJQsqaUBKTNV-1" vertex="1">
          <mxGeometry x="560" y="650" width="180" height="80" as="geometry" />
        </mxCell>
        <mxCell id="1DGVkTzjhTIz0uIGiIYD-17" value="" style="edgeStyle=orthogonalEdgeStyle;rounded=0;orthogonalLoop=1;jettySize=auto;html=1;" parent="WIyWlLk6GJQsqaUBKTNV-1" source="1DGVkTzjhTIz0uIGiIYD-6" target="1DGVkTzjhTIz0uIGiIYD-16" edge="1">
          <mxGeometry relative="1" as="geometry" />
        </mxCell>
        <mxCell id="1DGVkTzjhTIz0uIGiIYD-6" value="DISPLAY PRODUCTS" style="rhombus;whiteSpace=wrap;html=1;labelBackgroundColor=default;labelBorderColor=default;" parent="WIyWlLk6GJQsqaUBKTNV-1" vertex="1">
          <mxGeometry x="340" y="490" width="220" height="90" as="geometry" />
        </mxCell>
        <mxCell id="1DGVkTzjhTIz0uIGiIYD-15" value="" style="edgeStyle=orthogonalEdgeStyle;rounded=0;orthogonalLoop=1;jettySize=auto;html=1;" parent="WIyWlLk6GJQsqaUBKTNV-1" source="1DGVkTzjhTIz0uIGiIYD-12" target="1DGVkTzjhTIz0uIGiIYD-14" edge="1">
          <mxGeometry relative="1" as="geometry" />
        </mxCell>
        <mxCell id="1DGVkTzjhTIz0uIGiIYD-12" value="STOCK OF PRODUCT" style="rhombus;whiteSpace=wrap;html=1;labelBackgroundColor=default;labelBorderColor=default;" parent="WIyWlLk6GJQsqaUBKTNV-1" vertex="1">
          <mxGeometry x="140" y="650" width="190" height="80" as="geometry" />
        </mxCell>
        <mxCell id="1DGVkTzjhTIz0uIGiIYD-21" value="" style="edgeStyle=orthogonalEdgeStyle;rounded=0;orthogonalLoop=1;jettySize=auto;html=1;" parent="WIyWlLk6GJQsqaUBKTNV-1" source="1DGVkTzjhTIz0uIGiIYD-13" edge="1">
          <mxGeometry relative="1" as="geometry">
            <mxPoint x="250" y="840" as="targetPoint" />
          </mxGeometry>
        </mxCell>
        <mxCell id="1DGVkTzjhTIz0uIGiIYD-13" value="DELETE PRODUCT" style="rhombus;whiteSpace=wrap;html=1;labelBackgroundColor=default;labelBorderColor=default;" parent="WIyWlLk6GJQsqaUBKTNV-1" vertex="1">
          <mxGeometry x="330" y="800" width="240" height="80" as="geometry" />
        </mxCell>
        <mxCell id="1DGVkTzjhTIz0uIGiIYD-14" value="DISPLAY PRODUCT DETAILS" style="ellipse;whiteSpace=wrap;html=1;labelBackgroundColor=rgba(255, 255, 255, 1);labelBorderColor=rgba(0, 0, 0, 1);" parent="WIyWlLk6GJQsqaUBKTNV-1" vertex="1">
          <mxGeometry x="120" y="500" width="175" height="60" as="geometry" />
        </mxCell>
        <mxCell id="1DGVkTzjhTIz0uIGiIYD-16" value="PURCHASE PRODUCT" style="ellipse;whiteSpace=wrap;html=1;labelBackgroundColor=rgba(255, 255, 255, 1);labelBorderColor=rgba(0, 0, 0, 1);" parent="WIyWlLk6GJQsqaUBKTNV-1" vertex="1">
          <mxGeometry x="670" y="505" width="140" height="60" as="geometry" />
        </mxCell>
        <mxCell id="1DGVkTzjhTIz0uIGiIYD-18" value="ENTER NAME OR ID&lt;br&gt;&amp;nbsp;OF THE PRODUCT" style="ellipse;whiteSpace=wrap;html=1;labelBackgroundColor=rgba(255, 255, 255, 1);labelBorderColor=rgba(0, 0, 0, 1);" parent="WIyWlLk6GJQsqaUBKTNV-1" vertex="1">
          <mxGeometry x="590" y="819" width="190" height="60" as="geometry" />
        </mxCell>
        <mxCell id="1DGVkTzjhTIz0uIGiIYD-20" value="SHOULD CONITUE THE SHOPPING OR &lt;br&gt;LEAVE THE SITE" style="ellipse;whiteSpace=wrap;html=1;labelBackgroundColor=rgba(255, 255, 255, 1);labelBorderColor=none;" parent="WIyWlLk6GJQsqaUBKTNV-1" vertex="1">
          <mxGeometry x="10" y="790" width="240" height="100" as="geometry" />
        </mxCell>
      </root>
    </mxGraphModel>
  </diagram>
</mxfile>
